<?xml version="1.0" encoding="UTF-8"?>
<svg width="33px" height="18px" viewBox="0 0 33 18" version="1.1" xmlns="http://www.w3.org/2000/svg" xmlns:xlink="http://www.w3.org/1999/xlink">
    <title>真题备份</title>
    <defs>
        <linearGradient x1="100%" y1="50%" x2="0%" y2="50%" id="linearGradient-1">
            <stop stop-color="#FFBC16" offset="0%"></stop>
            <stop stop-color="#FFDB7A" offset="100%"></stop>
        </linearGradient>
    </defs>
    <g id="页面-3" stroke="none" stroke-width="1" fill="none" fill-rule="evenodd">
        <g id="错题排行" transform="translate(-328.000000, -485.000000)">
            <g id="真题备份" transform="translate(328.000000, 485.000000)">
                <path d="M2,0 L28,0 C29.1045695,-2.02906125e-16 30,0.8954305 30,2 L30,6 L30,6 L32.2928932,8.29289322 C32.6834175,8.68341751 32.6834175,9.31658249 32.2928932,9.70710678 L30,12 L30,12 L30,16 C30,17.1045695 29.1045695,18 28,18 L2,18 C0.8954305,18 1.3527075e-16,17.1045695 0,16 L0,2 C-1.3527075e-16,0.8954305 0.8954305,2.02906125e-16 2,0 Z" id="矩形" fill="url(#linearGradient-1)"></path>
                <text id="真题" font-family="DingTalk-JinBuTi, DingTalk JinBuTi" font-size="12" font-style="italic" font-weight="normal" line-spacing="10" fill="#281600">
                    <tspan x="3" y="15">真题</tspan>
                </text>
            </g>
        </g>
    </g>
</svg>